<?xml version="1.0"?>
<svg id="Layer_1" height="512" viewBox="0 0 150 150" width="512" xmlns="http://www.w3.org/2000/svg" data-name="Layer 1"><circle cx="75" cy="75" fill="#45b39c" r="64"/><rect fill="#d5d6db" height="12.449" rx="3.651" width="22.75" x="63.625" y="37.147"/><path d="m49.408 51.229v53.95a3.905 3.905 0 0 0 3.905 3.906h43.374a3.905 3.905 0 0 0 3.905-3.906v-53.95z" fill="#ebf0f3"/><g fill="#d5d6db"><path d="m59.601 60.62h3.995v38.556h-3.995z"/><path d="m68.535 60.62h3.995v38.556h-3.995z"/><path d="m77.47 60.62h3.995v38.556h-3.995z"/><path d="m86.405 60.62h3.995v38.556h-3.995z"/></g><path d="m45.728 49.6h58.544a0 0 0 0 1 0 0v3.026a2.531 2.531 0 0 1 -2.531 2.531h-53.482a2.531 2.531 0 0 1 -2.531-2.531v-3.026a0 0 0 0 1 0 0z" fill="#e1e6e9"/><path d="m102.446 45.318h-54.892a1.826 1.826 0 0 0 -1.826 1.826v2.456h58.544v-2.456a1.826 1.826 0 0 0 -1.826-1.826z" fill="#ebf0f3"/></svg>